<svg width="40" height="36" viewBox="0 0 40 36" fill="none" xmlns="http://www.w3.org/2000/svg">
<rect x="0.5" y="0.5" width="39" height="35" rx="11.5" fill="#052F35"/>
<rect x="0.5" y="0.5" width="39" height="35" rx="11.5" stroke="#0E464F"/>
<path d="M17 9.5V26.5M10.464 15.344C10.216 15.344 9.98902 15.142 10 14.879C10.067 13.337 10.255 12.333 10.78 11.539C11.0795 11.0865 11.455 10.6893 11.89 10.365C13.055 9.5 14.7 9.5 17.992 9.5H22.006C25.298 9.5 26.943 9.5 28.11 10.365C28.541 10.685 28.917 11.082 29.219 11.539C29.744 12.333 29.932 13.337 29.999 14.879C30.01 15.142 29.783 15.344 29.534 15.344C28.148 15.344 27.024 16.533 27.024 18C27.024 19.467 28.148 20.656 29.534 20.656C29.783 20.656 30.01 20.858 29.999 21.122C29.932 22.663 29.744 23.667 29.219 24.462C28.9195 24.9141 28.5439 25.311 28.109 25.635C26.943 26.5 25.298 26.5 22.006 26.5H17.993C14.701 26.5 13.056 26.5 11.889 25.635C11.4544 25.3106 11.0792 24.9134 10.78 24.461C10.255 23.667 10.067 22.663 10 21.121C9.98902 20.858 10.216 20.656 10.464 20.656C11.85 20.656 12.974 19.467 12.974 18C12.974 16.533 11.85 15.344 10.464 15.344Z" stroke="white" stroke-width="1.5" stroke-linecap="round" stroke-linejoin="round"/>
</svg>
