<svg width="236" height="69" viewBox="0 0 236 69" fill="none" xmlns="http://www.w3.org/2000/svg">
<path d="M5.06925 58.9907V67.718H4.01243V60.0987H3.96129L1.83061 61.5135V60.4396L4.01243 58.9907H5.06925Z" fill="white"/>
<path d="M29.6372 0.5H27.4419V56.7406H29.6372V0.5Z" fill="white"/>
<path d="M34.0279 0.5H31.8325V56.7406H34.0279V0.5Z" fill="white"/>
<path d="M2.19535 0.5H0V56.7406H2.19535V0.5Z" fill="white"/>
<path d="M6.58597 0.5H4.39062V56.7406H6.58597V0.5Z" fill="white"/>
<path d="M17.5626 0.5H8.78125V51.6278H17.5626V0.5Z" fill="white"/>
<path d="M24.149 0.5H20.856V51.5H24.149V0.5Z" fill="white"/>
<path d="M40.6138 0.5H38.4185V51.6278H40.6138V0.5Z" fill="white"/>
<path d="M49.3951 0.5H45.0044V51.6278H49.3951V0.5Z" fill="white"/>
<path d="M64.7627 0.5H62.5674V51.6278H64.7627V0.5Z" fill="white"/>
<path d="M75.7394 0.5H69.1533V51.6278H75.7394V0.5Z" fill="white"/>
<path d="M80.1299 0.5H77.9346V51.6278H80.1299V0.5Z" fill="white"/>
<path d="M86.7159 0.5H82.3252V51.6278H86.7159V0.5Z" fill="white"/>
<path d="M95.4976 0.5H93.3022V51.6278H95.4976V0.5Z" fill="white"/>
<path d="M106.474 0.5H104.279V51.6278H106.474V0.5Z" fill="white"/>
<path d="M110.865 0.5H108.669V51.6278H110.865V0.5Z" fill="white"/>
<path d="M117.451 0.5H115.256V51.6278H117.451V0.5Z" fill="white"/>
<path d="M126.232 0.5H124.037V51.6278H126.232V0.5Z" fill="white"/>
<path d="M58.9082 67.718V66.951L61.7889 63.7976C62.127 63.4282 62.4054 63.1072 62.6241 62.8345C62.8429 62.5589 63.0048 62.3004 63.1099 62.0589C63.2179 61.8146 63.2719 61.5589 63.2719 61.2919C63.2719 60.9851 63.198 60.7194 63.0503 60.495C62.9054 60.2706 62.7065 60.0973 62.4537 59.9751C62.2008 59.853 61.9167 59.7919 61.6014 59.7919C61.2662 59.7919 60.9736 59.8615 60.7236 60.0007C60.4764 60.1371 60.2846 60.3288 60.1483 60.576C60.0147 60.8231 59.948 61.1129 59.948 61.4453H58.9423C58.9423 60.9339 59.0602 60.4851 59.296 60.0987C59.5318 59.7123 59.8528 59.4112 60.2591 59.1953C60.6682 58.9794 61.127 58.8714 61.6355 58.8714C62.1469 58.8714 62.6 58.9794 62.9949 59.1953C63.3897 59.4112 63.6994 59.7024 63.9238 60.0689C64.1483 60.4353 64.2605 60.843 64.2605 61.2919C64.2605 61.6129 64.2022 61.9268 64.0858 62.2336C63.9721 62.5376 63.7733 62.8771 63.4892 63.2521C63.2079 63.6243 62.8173 64.0788 62.3173 64.6157L60.3571 66.7123V66.7805H64.4139V67.718H58.9082ZM69.1227 67.8373C68.5602 67.8373 68.0588 67.7407 67.6184 67.5476C67.1809 67.3544 66.8329 67.0859 66.5744 66.7422C66.3187 66.3956 66.1795 65.9936 66.1568 65.5362H67.2307C67.2534 65.8174 67.35 66.0603 67.5204 66.2649C67.6909 66.4666 67.9139 66.6228 68.1895 66.7336C68.465 66.8444 68.7704 66.8998 69.1057 66.8998C69.4807 66.8998 69.813 66.8345 70.1028 66.7038C70.3926 66.5731 70.6199 66.3913 70.7846 66.1584C70.9494 65.9254 71.0318 65.6555 71.0318 65.3487C71.0318 65.0277 70.9522 64.745 70.7932 64.5007C70.6341 64.2535 70.4011 64.0603 70.0943 63.9211C69.7875 63.7819 69.4125 63.7123 68.9693 63.7123H68.2704V62.7748H68.9693C69.3159 62.7748 69.6199 62.7123 69.8812 62.5873C70.1454 62.4623 70.3514 62.2862 70.4991 62.0589C70.6497 61.8317 70.725 61.5646 70.725 61.2578C70.725 60.9623 70.6596 60.7052 70.529 60.4865C70.3983 60.2677 70.2136 60.0973 69.975 59.9751C69.7392 59.853 69.4608 59.7919 69.1397 59.7919C68.8386 59.7919 68.5545 59.8473 68.2875 59.9581C68.0233 60.066 67.8074 60.2237 67.6397 60.4311C67.4721 60.6356 67.3812 60.8828 67.367 61.1726H66.3443C66.3613 60.7152 66.4991 60.3146 66.7576 59.9709C67.0162 59.6243 67.3542 59.3544 67.7719 59.1612C68.1923 58.968 68.654 58.8714 69.1568 58.8714C69.6966 58.8714 70.1596 58.9808 70.546 59.1996C70.9324 59.4155 71.2292 59.701 71.4366 60.0561C71.644 60.4112 71.7477 60.7947 71.7477 61.2067C71.7477 61.6981 71.6184 62.1172 71.3599 62.4638C71.1042 62.8103 70.7562 63.0504 70.3159 63.1839V63.2521C70.867 63.343 71.2974 63.5774 71.6071 63.9552C71.9167 64.3302 72.0716 64.7947 72.0716 65.3487C72.0716 65.8231 71.9423 66.2493 71.6838 66.6271C71.4281 67.0021 71.0787 67.2976 70.6355 67.5135C70.1923 67.7294 69.688 67.8373 69.1227 67.8373ZM73.6099 65.9282V65.0589L77.4451 58.9907H78.0758V60.3373H77.6497L74.752 64.9226V64.9907H79.9167V65.9282H73.6099ZM77.7179 67.718V65.664V65.2592V58.9907H78.7236V67.718H77.7179ZM84.241 67.8373C83.741 67.8373 83.2907 67.7379 82.8901 67.539C82.4895 67.3402 82.1685 67.0674 81.927 66.7209C81.6856 66.3743 81.5535 65.9794 81.5307 65.5362H82.5535C82.5932 65.9311 82.7722 66.2578 83.0904 66.5163C83.4114 66.772 83.7949 66.8998 84.241 66.8998C84.5989 66.8998 84.9171 66.816 85.1955 66.6484C85.4768 66.4808 85.6969 66.2507 85.856 65.9581C86.0179 65.6626 86.0989 65.3288 86.0989 64.9567C86.0989 64.576 86.0151 64.2365 85.8475 63.9382C85.6827 63.6371 85.4554 63.3998 85.1657 63.2265C84.8759 63.0532 84.5449 62.9652 84.1728 62.9623C83.9057 62.9595 83.6316 63.0007 83.3503 63.0859C83.0691 63.1683 82.8375 63.2748 82.6557 63.4055L81.6671 63.2862L82.1955 58.9907H86.7296V59.9282H83.0819L82.775 62.5021H82.8262C83.0052 62.3601 83.2296 62.2422 83.4995 62.1484C83.7694 62.0547 84.0506 62.0078 84.3432 62.0078C84.8773 62.0078 85.3532 62.1356 85.7708 62.3913C86.1912 62.6442 86.5208 62.9907 86.7594 63.4311C87.0009 63.8714 87.1216 64.3743 87.1216 64.9396C87.1216 65.4964 86.9966 65.9936 86.7466 66.4311C86.4995 66.8657 86.1586 67.2095 85.7239 67.4623C85.2893 67.7123 84.7949 67.8373 84.241 67.8373ZM91.7122 67.8373C91.3542 67.8317 90.9963 67.7635 90.6383 67.6328C90.2804 67.5021 89.9537 67.2819 89.6582 66.9723C89.3628 66.6598 89.1255 66.2379 88.9466 65.7067C88.7676 65.1726 88.6781 64.5021 88.6781 63.6953C88.6781 62.9226 88.7505 62.2379 88.8954 61.6413C89.0403 61.0419 89.2505 60.5376 89.5261 60.1285C89.8017 59.7166 90.1341 59.4041 90.5233 59.191C90.9153 58.978 91.3571 58.8714 91.8486 58.8714C92.3372 58.8714 92.7719 58.9694 93.1525 59.1655C93.5361 59.3586 93.8486 59.6285 94.09 59.9751C94.3315 60.3217 94.4878 60.7209 94.5588 61.1726H93.519C93.4224 60.7805 93.2349 60.4552 92.9565 60.1967C92.6781 59.9382 92.3088 59.8089 91.8486 59.8089C91.1724 59.8089 90.6397 60.103 90.2505 60.691C89.8642 61.2791 89.6696 62.1044 89.6667 63.1669H89.7349C89.894 62.9254 90.0829 62.7194 90.3017 62.549C90.5233 62.3757 90.7676 62.2422 91.0346 62.1484C91.3017 62.0547 91.5844 62.0078 91.8826 62.0078C92.3826 62.0078 92.84 62.1328 93.2548 62.3828C93.6696 62.6299 94.002 62.9723 94.252 63.4098C94.502 63.8444 94.627 64.343 94.627 64.9055C94.627 65.4453 94.5062 65.9396 94.2647 66.3885C94.0233 66.8345 93.6838 67.1896 93.2463 67.4538C92.8116 67.7152 92.3003 67.843 91.7122 67.8373ZM91.7122 66.8998C92.0701 66.8998 92.3912 66.8103 92.6753 66.6314C92.9622 66.4524 93.188 66.2123 93.3528 65.9112C93.5204 65.6101 93.6042 65.2748 93.6042 64.9055C93.6042 64.5447 93.5233 64.2166 93.3613 63.9211C93.2022 63.6228 92.9821 63.3856 92.7008 63.2095C92.4224 63.0334 92.1042 62.9453 91.7463 62.9453C91.4764 62.9453 91.225 62.9993 90.992 63.1072C90.7591 63.2123 90.5545 63.3572 90.3784 63.5419C90.2051 63.7265 90.0687 63.9382 89.9693 64.1768C89.8699 64.4126 89.8201 64.6612 89.8201 64.9226C89.8201 65.2692 89.9011 65.593 90.063 65.8942C90.2278 66.1953 90.4522 66.4382 90.7363 66.6228C91.0233 66.8075 91.3486 66.8998 91.7122 66.8998ZM96.5755 67.718L100.479 59.9964V59.9282H95.9789V58.9907H101.57V59.9794L97.6834 67.718H96.5755Z" fill="white"/>
<path d="M130.623 0.5H128.428V56.7406H130.623V0.5Z" fill="white"/>
<path d="M135.014 0.5H132.818V56.7406H135.014V0.5Z" fill="white"/>
<path d="M139.405 0.5H137.209V51.6278H139.405V0.5Z" fill="white"/>
<path d="M145.991 0.5H143.795V51.6278H145.991V0.5Z" fill="white"/>
<path d="M159.163 0.5H152.577V51.6278H159.163V0.5Z" fill="white"/>
<path d="M163.554 0.5H161.358V51.6278H163.554V0.5Z" fill="white"/>
<path d="M172.335 0.5H167.944V51.6278H172.335V0.5Z" fill="white"/>
<path d="M181.116 0.5H176.726V51.6278H181.116V0.5Z" fill="white"/>
<path d="M189.898 0.5H183.312V51.6278H189.898V0.5Z" fill="white"/>
<path d="M196.484 0.5H194.289V51.6278H196.484V0.5Z" fill="white"/>
<path d="M203.07 0.5H198.679V51.6278H203.07V0.5Z" fill="white"/>
<path d="M209.656 0.5H205.265V51.6278H209.656V0.5Z" fill="white"/>
<path d="M216.242 0.5H214.047V51.6278H216.242V0.5Z" fill="white"/>
<path d="M220.633 0.5H218.438V51.6278H220.633V0.5Z" fill="white"/>
<path d="M165.653 67.8373C165.068 67.8373 164.551 67.7336 164.102 67.5263C163.656 67.316 163.308 67.0277 163.058 66.6612C162.808 66.2919 162.685 65.8714 162.687 65.3998C162.685 65.0305 162.757 64.6896 162.905 64.3771C163.053 64.0618 163.254 63.799 163.51 63.5888C163.768 63.3757 164.057 63.2407 164.375 63.1839V63.1328C163.957 63.0248 163.625 62.7905 163.378 62.4297C163.131 62.066 163.008 61.6527 163.011 61.1896C163.008 60.7464 163.121 60.3501 163.348 60.0007C163.575 59.6513 163.888 59.3757 164.285 59.174C164.686 58.9723 165.142 58.8714 165.653 58.8714C166.159 58.8714 166.611 58.9723 167.008 59.174C167.406 59.3757 167.719 59.6513 167.946 60.0007C168.176 60.3501 168.293 60.7464 168.295 61.1896C168.293 61.6527 168.166 62.066 167.916 62.4297C167.669 62.7905 167.341 63.0248 166.932 63.1328V63.1839C167.247 63.2407 167.531 63.3757 167.784 63.5888C168.037 63.799 168.239 64.0618 168.389 64.3771C168.54 64.6896 168.616 65.0305 168.619 65.3998C168.616 65.8714 168.489 66.2919 168.236 66.6612C167.986 67.0277 167.638 67.316 167.192 67.5263C166.749 67.7336 166.236 67.8373 165.653 67.8373ZM165.653 66.8998C166.048 66.8998 166.389 66.8359 166.676 66.7081C166.963 66.5802 167.185 66.3998 167.341 66.1669C167.497 65.9339 167.577 65.6612 167.579 65.3487C167.577 65.0192 167.491 64.728 167.324 64.4751C167.156 64.2223 166.928 64.0234 166.638 63.8785C166.351 63.7336 166.023 63.6612 165.653 63.6612C165.281 63.6612 164.949 63.7336 164.656 63.8785C164.366 64.0234 164.138 64.2223 163.97 64.4751C163.805 64.728 163.724 65.0192 163.727 65.3487C163.724 65.6612 163.8 65.9339 163.953 66.1669C164.109 66.3998 164.332 66.5802 164.622 66.7081C164.912 66.8359 165.256 66.8998 165.653 66.8998ZM165.653 62.7578C165.966 62.7578 166.243 62.6953 166.484 62.5703C166.729 62.4453 166.92 62.2706 167.06 62.0461C167.199 61.8217 167.27 61.5589 167.273 61.2578C167.27 60.9623 167.2 60.7052 167.064 60.4865C166.928 60.2649 166.739 60.0944 166.497 59.9751C166.256 59.853 165.974 59.7919 165.653 59.7919C165.327 59.7919 165.041 59.853 164.797 59.9751C164.553 60.0944 164.364 60.2649 164.23 60.4865C164.097 60.7052 164.031 60.9623 164.034 61.2578C164.031 61.5589 164.098 61.8217 164.234 62.0461C164.374 62.2706 164.565 62.4453 164.81 62.5703C165.054 62.6953 165.335 62.7578 165.653 62.7578ZM173.031 58.8714C173.389 58.8743 173.747 58.9424 174.105 59.076C174.463 59.2095 174.789 59.4311 175.085 59.7407C175.38 60.0476 175.617 60.4666 175.796 60.9978C175.975 61.5291 176.065 62.1953 176.065 62.9964C176.065 63.772 175.991 64.4609 175.843 65.0632C175.698 65.6626 175.488 66.1683 175.213 66.5802C174.94 66.9922 174.608 67.3047 174.216 67.5177C173.826 67.7308 173.386 67.8373 172.894 67.8373C172.406 67.8373 171.97 67.7407 171.586 67.5476C171.206 67.3515 170.893 67.0802 170.649 66.7336C170.407 66.3842 170.252 65.9794 170.184 65.5192H171.224C171.318 65.9197 171.504 66.2507 171.782 66.5121C172.064 66.7706 172.434 66.8998 172.894 66.8998C173.568 66.8998 174.099 66.6058 174.488 66.0177C174.88 65.4297 175.076 64.5987 175.076 63.5248H175.008C174.849 63.7635 174.66 63.9694 174.441 64.1427C174.223 64.316 173.98 64.4496 173.713 64.5433C173.446 64.6371 173.162 64.6839 172.86 64.6839C172.36 64.6839 171.902 64.5603 171.484 64.3132C171.069 64.0632 170.737 63.7209 170.487 63.2862C170.24 62.8487 170.116 62.3487 170.116 61.7862C170.116 61.2521 170.235 60.7635 170.474 60.3203C170.716 59.8743 171.054 59.5192 171.488 59.2549C171.926 58.9907 172.44 58.8629 173.031 58.8714ZM173.031 59.8089C172.673 59.8089 172.35 59.8984 172.064 60.0774C171.779 60.2535 171.554 60.4922 171.386 60.7933C171.221 61.0916 171.139 61.4226 171.139 61.7862C171.139 62.1498 171.218 62.4808 171.377 62.7791C171.539 63.0746 171.76 63.3103 172.038 63.4865C172.319 63.6598 172.639 63.7464 172.997 63.7464C173.267 63.7464 173.518 63.6939 173.751 63.5888C173.984 63.4808 174.187 63.3345 174.36 63.1498C174.537 62.9623 174.674 62.7507 174.774 62.5149C174.873 62.2763 174.923 62.0277 174.923 61.7692C174.923 61.4282 174.841 61.1086 174.676 60.8103C174.514 60.5121 174.289 60.2706 174.002 60.0859C173.718 59.9013 173.394 59.8089 173.031 59.8089ZM180.809 58.9907V67.718H179.752V60.0987H179.701L177.57 61.5135V60.4396L179.752 58.9907H180.809ZM186.165 67.8373C185.523 67.8373 184.977 67.6626 184.525 67.3132C184.073 66.9609 183.728 66.451 183.489 65.7834C183.251 65.1129 183.131 64.3032 183.131 63.3544C183.131 62.4112 183.251 61.6058 183.489 60.9382C183.731 60.2677 184.077 59.7564 184.529 59.4041C184.984 59.049 185.529 58.8714 186.165 58.8714C186.802 58.8714 187.346 59.049 187.798 59.4041C188.252 59.7564 188.599 60.2677 188.837 60.9382C189.079 61.6058 189.2 62.4112 189.2 63.3544C189.2 64.3032 189.08 65.1129 188.842 65.7834C188.603 66.451 188.258 66.9609 187.806 67.3132C187.354 67.6626 186.807 67.8373 186.165 67.8373ZM186.165 66.8998C186.802 66.8998 187.296 66.593 187.648 65.9794C188.001 65.3657 188.177 64.4907 188.177 63.3544C188.177 62.5987 188.096 61.9552 187.934 61.424C187.775 60.8927 187.545 60.4879 187.244 60.2095C186.945 59.9311 186.586 59.7919 186.165 59.7919C185.535 59.7919 185.042 60.103 184.687 60.7251C184.332 61.3444 184.154 62.2209 184.154 63.3544C184.154 64.1101 184.234 64.7521 184.393 65.2805C184.552 65.8089 184.78 66.2109 185.079 66.4865C185.38 66.7621 185.742 66.8998 186.165 66.8998ZM190.819 67.718V66.951L193.7 63.7976C194.038 63.4282 194.316 63.1072 194.535 62.8345C194.753 62.5589 194.915 62.3004 195.021 62.0589C195.128 61.8146 195.182 61.5589 195.182 61.2919C195.182 60.9851 195.109 60.7194 194.961 60.495C194.816 60.2706 194.617 60.0973 194.364 59.9751C194.111 59.853 193.827 59.7919 193.512 59.7919C193.177 59.7919 192.884 59.8615 192.634 60.0007C192.387 60.1371 192.195 60.3288 192.059 60.576C191.925 60.8231 191.859 61.1129 191.859 61.4453H190.853C190.853 60.9339 190.971 60.4851 191.207 60.0987C191.442 59.7123 191.763 59.4112 192.17 59.1953C192.579 58.9794 193.038 58.8714 193.546 58.8714C194.057 58.8714 194.511 58.9794 194.905 59.1953C195.3 59.4112 195.61 59.7024 195.834 60.0689C196.059 60.4353 196.171 60.843 196.171 61.2919C196.171 61.6129 196.113 61.9268 195.996 62.2336C195.883 62.5376 195.684 62.8771 195.4 63.2521C195.119 63.6243 194.728 64.0788 194.228 64.6157L192.268 66.7123V66.7805H196.325V67.718H190.819ZM200.982 67.8373C200.624 67.8317 200.266 67.7635 199.908 67.6328C199.55 67.5021 199.224 67.2819 198.928 66.9723C198.633 66.6598 198.396 66.2379 198.217 65.7067C198.038 65.1726 197.948 64.5021 197.948 63.6953C197.948 62.9226 198.021 62.2379 198.165 61.6413C198.31 61.0419 198.521 60.5376 198.796 60.1285C199.072 59.7166 199.404 59.4041 199.793 59.191C200.185 58.978 200.627 58.8714 201.119 58.8714C201.607 58.8714 202.042 58.9694 202.423 59.1655C202.806 59.3586 203.119 59.6285 203.36 59.9751C203.602 60.3217 203.758 60.7209 203.829 61.1726H202.789C202.692 60.7805 202.505 60.4552 202.227 60.1967C201.948 59.9382 201.579 59.8089 201.119 59.8089C200.442 59.8089 199.91 60.103 199.521 60.691C199.134 61.2791 198.94 62.1044 198.937 63.1669H199.005C199.164 62.9254 199.353 62.7194 199.572 62.549C199.793 62.3757 200.038 62.2422 200.305 62.1484C200.572 62.0547 200.854 62.0078 201.153 62.0078C201.653 62.0078 202.11 62.1328 202.525 62.3828C202.94 62.6299 203.272 62.9723 203.522 63.4098C203.772 63.8444 203.897 64.343 203.897 64.9055C203.897 65.4453 203.776 65.9396 203.535 66.3885C203.293 66.8345 202.954 67.1896 202.516 67.4538C202.082 67.7152 201.57 67.843 200.982 67.8373ZM200.982 66.8998C201.34 66.8998 201.661 66.8103 201.945 66.6314C202.232 66.4524 202.458 66.2123 202.623 65.9112C202.79 65.6101 202.874 65.2748 202.874 64.9055C202.874 64.5447 202.793 64.2166 202.631 63.9211C202.472 63.6228 202.252 63.3856 201.971 63.2095C201.692 63.0334 201.374 62.9453 201.016 62.9453C200.746 62.9453 200.495 62.9993 200.262 63.1072C200.029 63.2123 199.825 63.3572 199.648 63.5419C199.475 63.7265 199.339 63.9382 199.239 64.1768C199.14 64.4126 199.09 64.6612 199.09 64.9226C199.09 65.2692 199.171 65.593 199.333 65.8942C199.498 66.1953 199.722 66.4382 200.006 66.6228C200.293 66.8075 200.619 66.8998 200.982 66.8998Z" fill="white"/>
<path d="M231.609 0.5H229.414V56.7406H231.609V0.5Z" fill="white"/>
<path d="M236 0.5H233.805V56.7406H236V0.5Z" fill="white"/>
</svg>
