<svg width="32" height="32" viewBox="0 0 32 32" fill="none" xmlns="http://www.w3.org/2000/svg">
<path d="M25.2639 14.816C24.6812 10.2266 20.7505 6.66663 16.0052 6.66663C12.3305 6.66663 9.13854 8.81463 7.68121 12.2C4.81721 13.056 2.67188 15.76 2.67188 18.6666C2.67188 22.3426 5.66254 25.3333 9.33854 25.3333H10.6719V22.6666H9.33854C7.13321 22.6666 5.33854 20.872 5.33854 18.6666C5.33854 16.7946 6.93721 14.9906 8.90254 14.6453L9.67721 14.5093L9.93321 13.7653C10.8705 11.0306 13.1972 9.33329 16.0052 9.33329C19.6812 9.33329 22.6719 12.324 22.6719 16V17.3333H24.0052C25.4759 17.3333 26.6719 18.5293 26.6719 20C26.6719 21.4706 25.4759 22.6666 24.0052 22.6666H21.3385V25.3333H24.0052C26.9465 25.3333 29.3385 22.9413 29.3385 20C29.337 18.8047 28.9347 17.6444 28.196 16.7046C27.4574 15.7649 26.425 15.0999 25.2639 14.816Z" fill="#FAFAFA"/>
<path d="M17.3385 18.6666V13.3333H14.6719V18.6666H10.6719L16.0052 25.3333L21.3385 18.6666H17.3385Z" fill="#FAFAFA"/>
</svg>
