<svg width="300" height="601" viewBox="0 0 300 601" fill="none" xmlns="http://www.w3.org/2000/svg">
<mask id="path-1-inside-1_4003_124" fill="white">
<path fill-rule="evenodd" clip-rule="evenodd" d="M300 24.7433C300 22.2558 297.488 20.5 295 20.5C286.716 20.5 280 13.7843 280 5.5C280 3.01247 278.244 0.5 275.757 0.5H24.2433C21.7558 0.5 20 3.01246 20 5.5C20 13.7843 13.2843 20.5 5 20.5C2.51246 20.5 0 22.2558 0 24.7433V469.257C0 471.744 2.51247 473.5 5 473.5C13.2843 473.5 20 480.216 20 488.5C20 496.784 13.2843 503.5 5 503.5C2.51247 503.5 0 505.256 0 507.743V576.257C0 578.744 2.51245 580.5 5 580.5C13.2843 580.5 20 587.216 20 595.5C20 597.988 21.7558 600.5 24.2433 600.5H275.757C278.244 600.5 280 597.988 280 595.5C280 587.216 286.716 580.5 295 580.5C297.488 580.5 300 578.744 300 576.257V507.743C300 505.256 297.488 503.5 295 503.5C286.716 503.5 280 496.784 280 488.5C280 480.216 286.716 473.5 295 473.5C297.488 473.5 300 471.744 300 469.257V24.7433ZM280 487.5C280 488.052 279.552 488.5 279 488.5H273C272.448 488.5 272 488.052 272 487.5C272 486.948 272.448 486.5 273 486.5H279C279.552 486.5 280 486.948 280 487.5ZM267 488.5C267.552 488.5 268 488.052 268 487.5C268 486.948 267.552 486.5 267 486.5H261C260.448 486.5 260 486.948 260 487.5C260 488.052 260.448 488.5 261 488.5H267ZM256 487.5C256 488.052 255.552 488.5 255 488.5H249C248.448 488.5 248 488.052 248 487.5C248 486.948 248.448 486.5 249 486.5H255C255.552 486.5 256 486.948 256 487.5ZM243 488.5C243.552 488.5 244 488.052 244 487.5C244 486.948 243.552 486.5 243 486.5H237C236.448 486.5 236 486.948 236 487.5C236 488.052 236.448 488.5 237 488.5H243ZM232 487.5C232 488.052 231.552 488.5 231 488.5H225C224.448 488.5 224 488.052 224 487.5C224 486.948 224.448 486.5 225 486.5H231C231.552 486.5 232 486.948 232 487.5ZM219 488.5C219.552 488.5 220 488.052 220 487.5C220 486.948 219.552 486.5 219 486.5H213C212.448 486.5 212 486.948 212 487.5C212 488.052 212.448 488.5 213 488.5H219ZM208 487.5C208 488.052 207.552 488.5 207 488.5H201C200.448 488.5 200 488.052 200 487.5C200 486.948 200.448 486.5 201 486.5H207C207.552 486.5 208 486.948 208 487.5ZM195 488.5C195.552 488.5 196 488.052 196 487.5C196 486.948 195.552 486.5 195 486.5H189C188.448 486.5 188 486.948 188 487.5C188 488.052 188.448 488.5 189 488.5H195ZM184 487.5C184 488.052 183.552 488.5 183 488.5H177C176.448 488.5 176 488.052 176 487.5C176 486.948 176.448 486.5 177 486.5H183C183.552 486.5 184 486.948 184 487.5ZM171 488.5C171.552 488.5 172 488.052 172 487.5C172 486.948 171.552 486.5 171 486.5H165C164.448 486.5 164 486.948 164 487.5C164 488.052 164.448 488.5 165 488.5H171ZM160 487.5C160 488.052 159.552 488.5 159 488.5H153C152.448 488.5 152 488.052 152 487.5C152 486.948 152.448 486.5 153 486.5H159C159.552 486.5 160 486.948 160 487.5ZM147 488.5C147.552 488.5 148 488.052 148 487.5C148 486.948 147.552 486.5 147 486.5H141C140.448 486.5 140 486.948 140 487.5C140 488.052 140.448 488.5 141 488.5H147ZM136 487.5C136 488.052 135.552 488.5 135 488.5H129C128.448 488.5 128 488.052 128 487.5C128 486.948 128.448 486.5 129 486.5H135C135.552 486.5 136 486.948 136 487.5ZM123 488.5C123.552 488.5 124 488.052 124 487.5C124 486.948 123.552 486.5 123 486.5H117C116.448 486.5 116 486.948 116 487.5C116 488.052 116.448 488.5 117 488.5H123ZM112 487.5C112 488.052 111.552 488.5 111 488.5H105C104.448 488.5 104 488.052 104 487.5C104 486.948 104.448 486.5 105 486.5H111C111.552 486.5 112 486.948 112 487.5ZM99 488.5C99.5523 488.5 100 488.052 100 487.5C100 486.948 99.5523 486.5 99 486.5H93C92.4477 486.5 92 486.948 92 487.5C92 488.052 92.4477 488.5 93 488.5H99ZM88 487.5C88 488.052 87.5523 488.5 87 488.5H81C80.4477 488.5 80 488.052 80 487.5C80 486.948 80.4477 486.5 81 486.5H87C87.5523 486.5 88 486.948 88 487.5ZM75 488.5C75.5523 488.5 76 488.052 76 487.5C76 486.948 75.5523 486.5 75 486.5H69C68.4477 486.5 68 486.948 68 487.5C68 488.052 68.4477 488.5 69 488.5H75ZM64 487.5C64 488.052 63.5523 488.5 63 488.5H57C56.4477 488.5 56 488.052 56 487.5C56 486.948 56.4477 486.5 57 486.5H63C63.5523 486.5 64 486.948 64 487.5ZM51 488.5C51.5523 488.5 52 488.052 52 487.5C52 486.948 51.5523 486.5 51 486.5H45C44.4477 486.5 44 486.948 44 487.5C44 488.052 44.4477 488.5 45 488.5H51ZM40 487.5C40 488.052 39.5523 488.5 39 488.5H33C32.4477 488.5 32 488.052 32 487.5C32 486.948 32.4477 486.5 33 486.5H39C39.5523 486.5 40 486.948 40 487.5ZM27 488.5C27.5523 488.5 28 488.052 28 487.5C28 486.948 27.5523 486.5 27 486.5H21C20.4477 486.5 20 486.948 20 487.5C20 488.052 20.4477 488.5 21 488.5H27Z"/>
</mask>
<path fill-rule="evenodd" clip-rule="evenodd" d="M300 24.7433C300 22.2558 297.488 20.5 295 20.5C286.716 20.5 280 13.7843 280 5.5C280 3.01247 278.244 0.5 275.757 0.5H24.2433C21.7558 0.5 20 3.01246 20 5.5C20 13.7843 13.2843 20.5 5 20.5C2.51246 20.5 0 22.2558 0 24.7433V469.257C0 471.744 2.51247 473.5 5 473.5C13.2843 473.5 20 480.216 20 488.5C20 496.784 13.2843 503.5 5 503.5C2.51247 503.5 0 505.256 0 507.743V576.257C0 578.744 2.51245 580.5 5 580.5C13.2843 580.5 20 587.216 20 595.5C20 597.988 21.7558 600.5 24.2433 600.5H275.757C278.244 600.5 280 597.988 280 595.5C280 587.216 286.716 580.5 295 580.5C297.488 580.5 300 578.744 300 576.257V507.743C300 505.256 297.488 503.5 295 503.5C286.716 503.5 280 496.784 280 488.5C280 480.216 286.716 473.5 295 473.5C297.488 473.5 300 471.744 300 469.257V24.7433ZM280 487.5C280 488.052 279.552 488.5 279 488.5H273C272.448 488.5 272 488.052 272 487.5C272 486.948 272.448 486.5 273 486.5H279C279.552 486.5 280 486.948 280 487.5ZM267 488.5C267.552 488.5 268 488.052 268 487.5C268 486.948 267.552 486.5 267 486.5H261C260.448 486.5 260 486.948 260 487.5C260 488.052 260.448 488.5 261 488.5H267ZM256 487.5C256 488.052 255.552 488.5 255 488.5H249C248.448 488.5 248 488.052 248 487.5C248 486.948 248.448 486.5 249 486.5H255C255.552 486.5 256 486.948 256 487.5ZM243 488.5C243.552 488.5 244 488.052 244 487.5C244 486.948 243.552 486.5 243 486.5H237C236.448 486.5 236 486.948 236 487.5C236 488.052 236.448 488.5 237 488.5H243ZM232 487.5C232 488.052 231.552 488.5 231 488.5H225C224.448 488.5 224 488.052 224 487.5C224 486.948 224.448 486.5 225 486.5H231C231.552 486.5 232 486.948 232 487.5ZM219 488.5C219.552 488.5 220 488.052 220 487.5C220 486.948 219.552 486.5 219 486.5H213C212.448 486.5 212 486.948 212 487.5C212 488.052 212.448 488.5 213 488.5H219ZM208 487.5C208 488.052 207.552 488.5 207 488.5H201C200.448 488.5 200 488.052 200 487.5C200 486.948 200.448 486.5 201 486.5H207C207.552 486.5 208 486.948 208 487.5ZM195 488.5C195.552 488.5 196 488.052 196 487.5C196 486.948 195.552 486.5 195 486.5H189C188.448 486.5 188 486.948 188 487.5C188 488.052 188.448 488.5 189 488.5H195ZM184 487.5C184 488.052 183.552 488.5 183 488.5H177C176.448 488.5 176 488.052 176 487.5C176 486.948 176.448 486.5 177 486.5H183C183.552 486.5 184 486.948 184 487.5ZM171 488.5C171.552 488.5 172 488.052 172 487.5C172 486.948 171.552 486.5 171 486.5H165C164.448 486.5 164 486.948 164 487.5C164 488.052 164.448 488.5 165 488.5H171ZM160 487.5C160 488.052 159.552 488.5 159 488.5H153C152.448 488.5 152 488.052 152 487.5C152 486.948 152.448 486.5 153 486.5H159C159.552 486.5 160 486.948 160 487.5ZM147 488.5C147.552 488.5 148 488.052 148 487.5C148 486.948 147.552 486.5 147 486.5H141C140.448 486.5 140 486.948 140 487.5C140 488.052 140.448 488.5 141 488.5H147ZM136 487.5C136 488.052 135.552 488.5 135 488.5H129C128.448 488.5 128 488.052 128 487.5C128 486.948 128.448 486.5 129 486.5H135C135.552 486.5 136 486.948 136 487.5ZM123 488.5C123.552 488.5 124 488.052 124 487.5C124 486.948 123.552 486.5 123 486.5H117C116.448 486.5 116 486.948 116 487.5C116 488.052 116.448 488.5 117 488.5H123ZM112 487.5C112 488.052 111.552 488.5 111 488.5H105C104.448 488.5 104 488.052 104 487.5C104 486.948 104.448 486.5 105 486.5H111C111.552 486.5 112 486.948 112 487.5ZM99 488.5C99.5523 488.5 100 488.052 100 487.5C100 486.948 99.5523 486.5 99 486.5H93C92.4477 486.5 92 486.948 92 487.5C92 488.052 92.4477 488.5 93 488.5H99ZM88 487.5C88 488.052 87.5523 488.5 87 488.5H81C80.4477 488.5 80 488.052 80 487.5C80 486.948 80.4477 486.5 81 486.5H87C87.5523 486.5 88 486.948 88 487.5ZM75 488.5C75.5523 488.5 76 488.052 76 487.5C76 486.948 75.5523 486.5 75 486.5H69C68.4477 486.5 68 486.948 68 487.5C68 488.052 68.4477 488.5 69 488.5H75ZM64 487.5C64 488.052 63.5523 488.5 63 488.5H57C56.4477 488.5 56 488.052 56 487.5C56 486.948 56.4477 486.5 57 486.5H63C63.5523 486.5 64 486.948 64 487.5ZM51 488.5C51.5523 488.5 52 488.052 52 487.5C52 486.948 51.5523 486.5 51 486.5H45C44.4477 486.5 44 486.948 44 487.5C44 488.052 44.4477 488.5 45 488.5H51ZM40 487.5C40 488.052 39.5523 488.5 39 488.5H33C32.4477 488.5 32 488.052 32 487.5C32 486.948 32.4477 486.5 33 486.5H39C39.5523 486.5 40 486.948 40 487.5ZM27 488.5C27.5523 488.5 28 488.052 28 487.5C28 486.948 27.5523 486.5 27 486.5H21C20.4477 486.5 20 486.948 20 487.5C20 488.052 20.4477 488.5 21 488.5H27Z" fill="#072C31"/>
<path fill-rule="evenodd" clip-rule="evenodd" d="M300 24.7433C300 22.2558 297.488 20.5 295 20.5C286.716 20.5 280 13.7843 280 5.5C280 3.01247 278.244 0.5 275.757 0.5H24.2433C21.7558 0.5 20 3.01246 20 5.5C20 13.7843 13.2843 20.5 5 20.5C2.51246 20.5 0 22.2558 0 24.7433V469.257C0 471.744 2.51247 473.5 5 473.5C13.2843 473.5 20 480.216 20 488.5C20 496.784 13.2843 503.5 5 503.5C2.51247 503.5 0 505.256 0 507.743V576.257C0 578.744 2.51245 580.5 5 580.5C13.2843 580.5 20 587.216 20 595.5C20 597.988 21.7558 600.5 24.2433 600.5H275.757C278.244 600.5 280 597.988 280 595.5C280 587.216 286.716 580.5 295 580.5C297.488 580.5 300 578.744 300 576.257V507.743C300 505.256 297.488 503.5 295 503.5C286.716 503.5 280 496.784 280 488.5C280 480.216 286.716 473.5 295 473.5C297.488 473.5 300 471.744 300 469.257V24.7433ZM280 487.5C280 488.052 279.552 488.5 279 488.5H273C272.448 488.5 272 488.052 272 487.5C272 486.948 272.448 486.5 273 486.5H279C279.552 486.5 280 486.948 280 487.5ZM267 488.5C267.552 488.5 268 488.052 268 487.5C268 486.948 267.552 486.5 267 486.5H261C260.448 486.5 260 486.948 260 487.5C260 488.052 260.448 488.5 261 488.5H267ZM256 487.5C256 488.052 255.552 488.5 255 488.5H249C248.448 488.5 248 488.052 248 487.5C248 486.948 248.448 486.5 249 486.5H255C255.552 486.5 256 486.948 256 487.5ZM243 488.5C243.552 488.5 244 488.052 244 487.5C244 486.948 243.552 486.5 243 486.5H237C236.448 486.5 236 486.948 236 487.5C236 488.052 236.448 488.5 237 488.5H243ZM232 487.5C232 488.052 231.552 488.5 231 488.5H225C224.448 488.5 224 488.052 224 487.5C224 486.948 224.448 486.5 225 486.5H231C231.552 486.5 232 486.948 232 487.5ZM219 488.5C219.552 488.5 220 488.052 220 487.5C220 486.948 219.552 486.5 219 486.5H213C212.448 486.5 212 486.948 212 487.5C212 488.052 212.448 488.5 213 488.5H219ZM208 487.5C208 488.052 207.552 488.5 207 488.5H201C200.448 488.5 200 488.052 200 487.5C200 486.948 200.448 486.5 201 486.5H207C207.552 486.5 208 486.948 208 487.5ZM195 488.5C195.552 488.5 196 488.052 196 487.5C196 486.948 195.552 486.5 195 486.5H189C188.448 486.5 188 486.948 188 487.5C188 488.052 188.448 488.5 189 488.5H195ZM184 487.5C184 488.052 183.552 488.5 183 488.5H177C176.448 488.5 176 488.052 176 487.5C176 486.948 176.448 486.5 177 486.5H183C183.552 486.5 184 486.948 184 487.5ZM171 488.5C171.552 488.5 172 488.052 172 487.5C172 486.948 171.552 486.5 171 486.5H165C164.448 486.5 164 486.948 164 487.5C164 488.052 164.448 488.5 165 488.5H171ZM160 487.5C160 488.052 159.552 488.5 159 488.5H153C152.448 488.5 152 488.052 152 487.5C152 486.948 152.448 486.5 153 486.5H159C159.552 486.5 160 486.948 160 487.5ZM147 488.5C147.552 488.5 148 488.052 148 487.5C148 486.948 147.552 486.5 147 486.5H141C140.448 486.5 140 486.948 140 487.5C140 488.052 140.448 488.5 141 488.5H147ZM136 487.5C136 488.052 135.552 488.5 135 488.5H129C128.448 488.5 128 488.052 128 487.5C128 486.948 128.448 486.5 129 486.5H135C135.552 486.5 136 486.948 136 487.5ZM123 488.5C123.552 488.5 124 488.052 124 487.5C124 486.948 123.552 486.5 123 486.5H117C116.448 486.5 116 486.948 116 487.5C116 488.052 116.448 488.5 117 488.5H123ZM112 487.5C112 488.052 111.552 488.5 111 488.5H105C104.448 488.5 104 488.052 104 487.5C104 486.948 104.448 486.5 105 486.5H111C111.552 486.5 112 486.948 112 487.5ZM99 488.5C99.5523 488.5 100 488.052 100 487.5C100 486.948 99.5523 486.5 99 486.5H93C92.4477 486.5 92 486.948 92 487.5C92 488.052 92.4477 488.5 93 488.5H99ZM88 487.5C88 488.052 87.5523 488.5 87 488.5H81C80.4477 488.5 80 488.052 80 487.5C80 486.948 80.4477 486.5 81 486.5H87C87.5523 486.5 88 486.948 88 487.5ZM75 488.5C75.5523 488.5 76 488.052 76 487.5C76 486.948 75.5523 486.5 75 486.5H69C68.4477 486.5 68 486.948 68 487.5C68 488.052 68.4477 488.5 69 488.5H75ZM64 487.5C64 488.052 63.5523 488.5 63 488.5H57C56.4477 488.5 56 488.052 56 487.5C56 486.948 56.4477 486.5 57 486.5H63C63.5523 486.5 64 486.948 64 487.5ZM51 488.5C51.5523 488.5 52 488.052 52 487.5C52 486.948 51.5523 486.5 51 486.5H45C44.4477 486.5 44 486.948 44 487.5C44 488.052 44.4477 488.5 45 488.5H51ZM40 487.5C40 488.052 39.5523 488.5 39 488.5H33C32.4477 488.5 32 488.052 32 487.5C32 486.948 32.4477 486.5 33 486.5H39C39.5523 486.5 40 486.948 40 487.5ZM27 488.5C27.5523 488.5 28 488.052 28 487.5C28 486.948 27.5523 486.5 27 486.5H21C20.4477 486.5 20 486.948 20 487.5C20 488.052 20.4477 488.5 21 488.5H27Z" fill="url(#paint0_radial_4003_124)"/>
<path fill-rule="evenodd" clip-rule="evenodd" d="M300 24.7433C300 22.2558 297.488 20.5 295 20.5C286.716 20.5 280 13.7843 280 5.5C280 3.01247 278.244 0.5 275.757 0.5H24.2433C21.7558 0.5 20 3.01246 20 5.5C20 13.7843 13.2843 20.5 5 20.5C2.51246 20.5 0 22.2558 0 24.7433V469.257C0 471.744 2.51247 473.5 5 473.5C13.2843 473.5 20 480.216 20 488.5C20 496.784 13.2843 503.5 5 503.5C2.51247 503.5 0 505.256 0 507.743V576.257C0 578.744 2.51245 580.5 5 580.5C13.2843 580.5 20 587.216 20 595.5C20 597.988 21.7558 600.5 24.2433 600.5H275.757C278.244 600.5 280 597.988 280 595.5C280 587.216 286.716 580.5 295 580.5C297.488 580.5 300 578.744 300 576.257V507.743C300 505.256 297.488 503.5 295 503.5C286.716 503.5 280 496.784 280 488.5C280 480.216 286.716 473.5 295 473.5C297.488 473.5 300 471.744 300 469.257V24.7433ZM280 487.5C280 488.052 279.552 488.5 279 488.5H273C272.448 488.5 272 488.052 272 487.5C272 486.948 272.448 486.5 273 486.5H279C279.552 486.5 280 486.948 280 487.5ZM267 488.5C267.552 488.5 268 488.052 268 487.5C268 486.948 267.552 486.5 267 486.5H261C260.448 486.5 260 486.948 260 487.5C260 488.052 260.448 488.5 261 488.5H267ZM256 487.5C256 488.052 255.552 488.5 255 488.5H249C248.448 488.5 248 488.052 248 487.5C248 486.948 248.448 486.5 249 486.5H255C255.552 486.5 256 486.948 256 487.5ZM243 488.5C243.552 488.5 244 488.052 244 487.5C244 486.948 243.552 486.5 243 486.5H237C236.448 486.5 236 486.948 236 487.5C236 488.052 236.448 488.5 237 488.5H243ZM232 487.5C232 488.052 231.552 488.5 231 488.5H225C224.448 488.5 224 488.052 224 487.5C224 486.948 224.448 486.5 225 486.5H231C231.552 486.5 232 486.948 232 487.5ZM219 488.5C219.552 488.5 220 488.052 220 487.5C220 486.948 219.552 486.5 219 486.5H213C212.448 486.5 212 486.948 212 487.5C212 488.052 212.448 488.5 213 488.5H219ZM208 487.5C208 488.052 207.552 488.5 207 488.5H201C200.448 488.5 200 488.052 200 487.5C200 486.948 200.448 486.5 201 486.5H207C207.552 486.5 208 486.948 208 487.5ZM195 488.5C195.552 488.5 196 488.052 196 487.5C196 486.948 195.552 486.5 195 486.5H189C188.448 486.5 188 486.948 188 487.5C188 488.052 188.448 488.5 189 488.5H195ZM184 487.5C184 488.052 183.552 488.5 183 488.5H177C176.448 488.5 176 488.052 176 487.5C176 486.948 176.448 486.5 177 486.5H183C183.552 486.5 184 486.948 184 487.5ZM171 488.5C171.552 488.5 172 488.052 172 487.5C172 486.948 171.552 486.5 171 486.5H165C164.448 486.5 164 486.948 164 487.5C164 488.052 164.448 488.5 165 488.5H171ZM160 487.5C160 488.052 159.552 488.5 159 488.5H153C152.448 488.5 152 488.052 152 487.5C152 486.948 152.448 486.5 153 486.5H159C159.552 486.5 160 486.948 160 487.5ZM147 488.5C147.552 488.5 148 488.052 148 487.5C148 486.948 147.552 486.5 147 486.5H141C140.448 486.5 140 486.948 140 487.5C140 488.052 140.448 488.5 141 488.5H147ZM136 487.5C136 488.052 135.552 488.5 135 488.5H129C128.448 488.5 128 488.052 128 487.5C128 486.948 128.448 486.5 129 486.5H135C135.552 486.5 136 486.948 136 487.5ZM123 488.5C123.552 488.5 124 488.052 124 487.5C124 486.948 123.552 486.5 123 486.5H117C116.448 486.5 116 486.948 116 487.5C116 488.052 116.448 488.5 117 488.5H123ZM112 487.5C112 488.052 111.552 488.5 111 488.5H105C104.448 488.5 104 488.052 104 487.5C104 486.948 104.448 486.5 105 486.5H111C111.552 486.5 112 486.948 112 487.5ZM99 488.5C99.5523 488.5 100 488.052 100 487.5C100 486.948 99.5523 486.5 99 486.5H93C92.4477 486.5 92 486.948 92 487.5C92 488.052 92.4477 488.5 93 488.5H99ZM88 487.5C88 488.052 87.5523 488.5 87 488.5H81C80.4477 488.5 80 488.052 80 487.5C80 486.948 80.4477 486.5 81 486.5H87C87.5523 486.5 88 486.948 88 487.5ZM75 488.5C75.5523 488.5 76 488.052 76 487.5C76 486.948 75.5523 486.5 75 486.5H69C68.4477 486.5 68 486.948 68 487.5C68 488.052 68.4477 488.5 69 488.5H75ZM64 487.5C64 488.052 63.5523 488.5 63 488.5H57C56.4477 488.5 56 488.052 56 487.5C56 486.948 56.4477 486.5 57 486.5H63C63.5523 486.5 64 486.948 64 487.5ZM51 488.5C51.5523 488.5 52 488.052 52 487.5C52 486.948 51.5523 486.5 51 486.5H45C44.4477 486.5 44 486.948 44 487.5C44 488.052 44.4477 488.5 45 488.5H51ZM40 487.5C40 488.052 39.5523 488.5 39 488.5H33C32.4477 488.5 32 488.052 32 487.5C32 486.948 32.4477 486.5 33 486.5H39C39.5523 486.5 40 486.948 40 487.5ZM27 488.5C27.5523 488.5 28 488.052 28 487.5C28 486.948 27.5523 486.5 27 486.5H21C20.4477 486.5 20 486.948 20 487.5C20 488.052 20.4477 488.5 21 488.5H27Z" fill="url(#paint1_radial_4003_124)"/>
<path d="M279 5.5C279 14.3366 286.163 21.5 295 21.5V19.5C287.268 19.5 281 13.232 281 5.5H279ZM24.2433 1.5H275.757V-0.5H24.2433V1.5ZM5 21.5C13.8366 21.5 21 14.3366 21 5.5H19C19 13.232 12.732 19.5 5 19.5V21.5ZM1 469.257V24.7433H-1V469.257H1ZM21 488.5C21 479.663 13.8366 472.5 5 472.5V474.5C12.732 474.5 19 480.768 19 488.5H21ZM5 504.5C13.8366 504.5 21 497.337 21 488.5H19C19 496.232 12.732 502.5 5 502.5V504.5ZM1 576.257V507.743H-1V576.257H1ZM21 595.5C21 586.663 13.8366 579.5 5 579.5V581.5C12.732 581.5 19 587.768 19 595.5H21ZM275.757 599.5H24.2433V601.5H275.757V599.5ZM281 595.5C281 587.768 287.268 581.5 295 581.5V579.5C286.163 579.5 279 586.663 279 595.5H281ZM299 507.743V576.257H301V507.743H299ZM279 488.5C279 497.337 286.163 504.5 295 504.5V502.5C287.268 502.5 281 496.232 281 488.5H279ZM295 472.5C286.163 472.5 279 479.663 279 488.5H281C281 480.768 287.268 474.5 295 474.5V472.5ZM299 24.7433V469.257H301V24.7433H299ZM279 489.5C280.105 489.5 281 488.605 281 487.5H279V489.5ZM273 489.5H279V487.5H273V489.5ZM271 487.5C271 488.605 271.895 489.5 273 489.5V487.5H271ZM273 485.5C271.895 485.5 271 486.395 271 487.5H273V485.5ZM279 485.5H273V487.5H279V485.5ZM281 487.5C281 486.395 280.105 485.5 279 485.5V487.5H281ZM267 487.5V489.5C268.105 489.5 269 488.605 269 487.5H267ZM267 487.5H269C269 486.395 268.105 485.5 267 485.5V487.5ZM261 487.5H267V485.5H261V487.5ZM261 487.5V485.5C259.895 485.5 259 486.395 259 487.5H261ZM261 487.5H259C259 488.605 259.895 489.5 261 489.5V487.5ZM267 487.5H261V489.5H267V487.5ZM255 489.5C256.105 489.5 257 488.605 257 487.5H255V489.5ZM249 489.5H255V487.5H249V489.5ZM247 487.5C247 488.605 247.895 489.5 249 489.5V487.5H247ZM249 485.5C247.895 485.5 247 486.395 247 487.5H249V485.5ZM255 485.5H249V487.5H255V485.5ZM257 487.5C257 486.395 256.105 485.5 255 485.5V487.5H257ZM243 487.5V489.5C244.105 489.5 245 488.605 245 487.5H243ZM243 487.5H245C245 486.395 244.105 485.5 243 485.5V487.5ZM237 487.5H243V485.5H237V487.5ZM237 487.5V485.5C235.895 485.5 235 486.395 235 487.5H237ZM237 487.5H235C235 488.605 235.895 489.5 237 489.5V487.5ZM243 487.5H237V489.5H243V487.5ZM231 489.5C232.105 489.5 233 488.605 233 487.5H231V489.5ZM225 489.5H231V487.5H225V489.5ZM223 487.5C223 488.605 223.895 489.5 225 489.5V487.5H223ZM225 485.5C223.895 485.5 223 486.395 223 487.5H225V485.5ZM231 485.5H225V487.5H231V485.5ZM233 487.5C233 486.395 232.105 485.5 231 485.5V487.5H233ZM219 487.5V489.5C220.105 489.5 221 488.605 221 487.5H219ZM219 487.5H221C221 486.395 220.105 485.5 219 485.5V487.5ZM213 487.5H219V485.5H213V487.5ZM213 487.5V485.5C211.895 485.5 211 486.395 211 487.5H213ZM213 487.5H211C211 488.605 211.895 489.5 213 489.5V487.5ZM219 487.5H213V489.5H219V487.5ZM207 489.5C208.105 489.5 209 488.605 209 487.5H207V489.5ZM201 489.5H207V487.5H201V489.5ZM199 487.5C199 488.605 199.895 489.5 201 489.5V487.5H199ZM201 485.5C199.895 485.5 199 486.395 199 487.5H201V485.5ZM207 485.5H201V487.5H207V485.5ZM209 487.5C209 486.395 208.105 485.5 207 485.5V487.5H209ZM195 487.5V489.5C196.105 489.5 197 488.605 197 487.5H195ZM195 487.5H197C197 486.395 196.105 485.5 195 485.5V487.5ZM189 487.5H195V485.5H189V487.5ZM189 487.5V485.5C187.895 485.5 187 486.395 187 487.5H189ZM189 487.5H187C187 488.605 187.895 489.5 189 489.5V487.5ZM195 487.5H189V489.5H195V487.5ZM183 489.5C184.105 489.5 185 488.605 185 487.5H183V489.5ZM177 489.5H183V487.5H177V489.5ZM175 487.5C175 488.605 175.895 489.5 177 489.5V487.5H175ZM177 485.5C175.895 485.5 175 486.395 175 487.5H177V485.5ZM183 485.5H177V487.5H183V485.5ZM185 487.5C185 486.395 184.105 485.5 183 485.5V487.5H185ZM171 487.5V489.5C172.105 489.5 173 488.605 173 487.5H171ZM171 487.5H173C173 486.395 172.105 485.5 171 485.5V487.5ZM165 487.5H171V485.5H165V487.5ZM165 487.5V485.5C163.895 485.5 163 486.395 163 487.5H165ZM165 487.5H163C163 488.605 163.895 489.5 165 489.5V487.5ZM171 487.5H165V489.5H171V487.5ZM159 489.5C160.105 489.5 161 488.605 161 487.5H159V489.5ZM153 489.5H159V487.5H153V489.5ZM151 487.5C151 488.605 151.895 489.5 153 489.5V487.5H151ZM153 485.5C151.895 485.5 151 486.395 151 487.5H153V485.5ZM159 485.5H153V487.5H159V485.5ZM161 487.5C161 486.395 160.105 485.5 159 485.5V487.5H161ZM147 487.5V489.5C148.105 489.5 149 488.605 149 487.5H147ZM147 487.5H149C149 486.395 148.105 485.5 147 485.5V487.5ZM141 487.5H147V485.5H141V487.5ZM141 487.5V485.5C139.895 485.5 139 486.395 139 487.5H141ZM141 487.5H139C139 488.605 139.895 489.5 141 489.5V487.5ZM147 487.5H141V489.5H147V487.5ZM135 489.5C136.105 489.5 137 488.605 137 487.5H135V489.5ZM129 489.5H135V487.5H129V489.5ZM127 487.5C127 488.605 127.895 489.5 129 489.5V487.5H127ZM129 485.5C127.895 485.5 127 486.395 127 487.5H129V485.5ZM135 485.5H129V487.5H135V485.5ZM137 487.5C137 486.395 136.105 485.5 135 485.5V487.5H137ZM123 487.5V489.5C124.105 489.5 125 488.605 125 487.5H123ZM123 487.5H125C125 486.395 124.105 485.5 123 485.5V487.5ZM117 487.5H123V485.5H117V487.5ZM117 487.5V485.5C115.895 485.5 115 486.395 115 487.5H117ZM117 487.5H115C115 488.605 115.895 489.5 117 489.5V487.5ZM123 487.5H117V489.5H123V487.5ZM111 489.5C112.105 489.5 113 488.605 113 487.5H111V489.5ZM105 489.5H111V487.5H105V489.5ZM103 487.5C103 488.605 103.895 489.5 105 489.5V487.5H103ZM105 485.5C103.895 485.5 103 486.395 103 487.5H105V485.5ZM111 485.5H105V487.5H111V485.5ZM113 487.5C113 486.395 112.105 485.5 111 485.5V487.5H113ZM99 487.5V489.5C100.105 489.5 101 488.605 101 487.5H99ZM99 487.5H101C101 486.395 100.105 485.5 99 485.5V487.5ZM93 487.5H99V485.5H93V487.5ZM93 487.5V485.5C91.8954 485.5 91 486.395 91 487.5H93ZM93 487.5H91C91 488.605 91.8954 489.5 93 489.5V487.5ZM99 487.5H93V489.5H99V487.5ZM87 489.5C88.1046 489.5 89 488.605 89 487.5H87V489.5ZM81 489.5H87V487.5H81V489.5ZM79 487.5C79 488.605 79.8954 489.5 81 489.5V487.5H79ZM81 485.5C79.8954 485.5 79 486.395 79 487.5H81V485.5ZM87 485.5H81V487.5H87V485.5ZM89 487.5C89 486.395 88.1046 485.5 87 485.5V487.5H89ZM75 487.5V489.5C76.1046 489.5 77 488.605 77 487.5H75ZM75 487.5H77C77 486.395 76.1046 485.5 75 485.5V487.5ZM69 487.5H75V485.5H69V487.5ZM69 487.5V485.5C67.8954 485.5 67 486.395 67 487.5H69ZM69 487.5H67C67 488.605 67.8954 489.5 69 489.5V487.5ZM75 487.5H69V489.5H75V487.5ZM63 489.5C64.1046 489.5 65 488.605 65 487.5H63V489.5ZM57 489.5H63V487.5H57V489.5ZM55 487.5C55 488.605 55.8954 489.5 57 489.5V487.5H55ZM57 485.5C55.8954 485.5 55 486.395 55 487.5H57V485.5ZM63 485.5H57V487.5H63V485.5ZM65 487.5C65 486.395 64.1046 485.5 63 485.5V487.5H65ZM51 487.5V489.5C52.1046 489.5 53 488.605 53 487.5H51ZM51 487.5H53C53 486.395 52.1046 485.5 51 485.5V487.5ZM45 487.5H51V485.5H45V487.5ZM45 487.5V485.5C43.8954 485.5 43 486.395 43 487.5H45ZM45 487.5H43C43 488.605 43.8954 489.5 45 489.5V487.5ZM51 487.5H45V489.5H51V487.5ZM39 489.5C40.1046 489.5 41 488.605 41 487.5H39V489.5ZM33 489.5H39V487.5H33V489.5ZM31 487.5C31 488.605 31.8954 489.5 33 489.5V487.5H31ZM33 485.5C31.8954 485.5 31 486.395 31 487.5H33V485.5ZM39 485.5H33V487.5H39V485.5ZM41 487.5C41 486.395 40.1046 485.5 39 485.5V487.5H41ZM27 487.5V489.5C28.1046 489.5 29 488.605 29 487.5H27ZM27 487.5H29C29 486.395 28.1046 485.5 27 485.5V487.5ZM21 487.5H27V485.5H21V487.5ZM21 487.5V485.5C19.8954 485.5 19 486.395 19 487.5H21ZM21 487.5H19C19 488.605 19.8954 489.5 21 489.5V487.5ZM27 487.5H21V489.5H27V487.5ZM295 474.5C296.467 474.5 297.938 473.986 299.057 473.093C300.183 472.193 301 470.863 301 469.257H299C299 470.138 298.56 470.93 297.809 471.53C297.05 472.136 296.02 472.5 295 472.5V474.5ZM301 507.743C301 506.137 300.183 504.807 299.057 503.907C297.938 503.014 296.467 502.5 295 502.5V504.5C296.02 504.5 297.05 504.864 297.809 505.47C298.56 506.07 299 506.862 299 507.743H301ZM295 581.5C296.467 581.5 297.938 580.986 299.057 580.093C300.183 579.193 301 577.863 301 576.257H299C299 577.138 298.56 577.93 297.809 578.53C297.05 579.136 296.02 579.5 295 579.5V581.5ZM275.757 601.5C277.363 601.5 278.693 600.683 279.593 599.557C280.486 598.438 281 596.967 281 595.5H279C279 596.52 278.636 597.55 278.03 598.309C277.43 599.06 276.638 599.5 275.757 599.5V601.5ZM19 595.5C19 596.967 19.5139 598.438 20.4074 599.557C21.307 600.683 22.6366 601.5 24.2433 601.5V599.5C23.3625 599.5 22.5704 599.06 21.9703 598.309C21.364 597.55 21 596.52 21 595.5H19ZM-1 576.257C-1 577.863 -0.183389 579.193 0.943162 580.093C2.06205 580.986 3.53284 581.5 5 581.5V579.5C3.97961 579.5 2.9504 579.136 2.19117 578.53C1.43961 577.93 1 577.138 1 576.257H-1ZM5 19.5C3.53285 19.5 2.06205 20.0139 0.943165 20.9074C-0.183384 21.807 -1 23.1366 -1 24.7433H1C1 23.8625 1.43962 23.0704 2.19118 22.4703C2.95041 21.864 3.97962 21.5 5 21.5V19.5ZM24.2433 -0.5C22.6366 -0.5 21.307 0.316617 20.4074 1.44317C19.5139 2.56206 19 4.03285 19 5.5H21C21 4.47961 21.364 3.45041 21.9703 2.69118C22.5704 1.93961 23.3625 1.5 24.2433 1.5V-0.5ZM-1 469.257C-1 470.863 -0.183381 472.193 0.943168 473.093C2.06205 473.986 3.53285 474.5 5 474.5V472.5C3.97962 472.5 2.95041 472.136 2.19118 471.53C1.43961 470.93 1 470.138 1 469.257H-1ZM281 5.5C281 4.03285 280.486 2.56206 279.593 1.44317C278.693 0.31662 277.363 -0.5 275.757 -0.5V1.5C276.638 1.5 277.43 1.93961 278.03 2.69118C278.636 3.45041 279 4.47962 279 5.5H281ZM5 502.5C3.53285 502.5 2.06205 503.014 0.943168 503.907C-0.183381 504.807 -1 506.137 -1 507.743H1C1 506.862 1.43961 506.07 2.19118 505.47C2.95041 504.864 3.97962 504.5 5 504.5V502.5ZM295 21.5C296.02 21.5 297.05 21.864 297.809 22.4703C298.56 23.0704 299 23.8625 299 24.7433H301C301 23.1366 300.183 21.807 299.057 20.9074C297.938 20.0139 296.467 19.5 295 19.5V21.5Z" fill="#24A0B5" mask="url(#path-1-inside-1_4003_124)"/>
<defs>
<radialGradient id="paint0_radial_4003_124" cx="0" cy="0" r="1" gradientUnits="userSpaceOnUse" gradientTransform="translate(150 0.499994) rotate(90) scale(83.5 150)">
<stop stop-color="#24A0B5" stop-opacity="0.5"/>
<stop offset="1" stop-color="#24A0B5" stop-opacity="0"/>
</radialGradient>
<radialGradient id="paint1_radial_4003_124" cx="0" cy="0" r="1" gradientUnits="userSpaceOnUse" gradientTransform="translate(150 620) rotate(-90) scale(217 150)">
<stop stop-color="#24A0B5" stop-opacity="0.5"/>
<stop offset="1" stop-color="#24A0B5" stop-opacity="0"/>
</radialGradient>
</defs>
</svg>
